<?xml version="1.0" encoding="UTF-8" standalone="no"?>
<svg
   xmlns:dc="http://purl.org/dc/elements/1.1/"
   xmlns:cc="http://creativecommons.org/ns#"
   xmlns:rdf="http://www.w3.org/1999/02/22-rdf-syntax-ns#"
   xmlns:svg="http://www.w3.org/2000/svg"
   xmlns="http://www.w3.org/2000/svg"
   xmlns:sodipodi="http://sodipodi.sourceforge.net/DTD/sodipodi-0.dtd"
   xmlns:inkscape="http://www.inkscape.org/namespaces/inkscape"
   version="1.1"
   id="svg945"
   xml:space="preserve"
   width="332.59842"
   height="120.94489"
   viewBox="0 0 332.59842 120.94489"
   sodipodi:docname="fig_cdpr_mapping_of_diff_spaces.svg"
   inkscape:version="1.0.2-2 (e86c870879, 2021-01-15)"><metadata
     id="metadata951"><rdf:RDF><cc:Work
         rdf:about=""><dc:format>image/svg+xml</dc:format><dc:type
           rdf:resource="http://purl.org/dc/dcmitype/StillImage" /><dc:title></dc:title></cc:Work></rdf:RDF></metadata><defs
     id="defs949" /><sodipodi:namedview
     pagecolor="#ffffff"
     bordercolor="#666666"
     borderopacity="1"
     objecttolerance="10"
     gridtolerance="10"
     guidetolerance="10"
     inkscape:pageopacity="0"
     inkscape:pageshadow="2"
     inkscape:window-width="2560"
     inkscape:window-height="1346"
     id="namedview947"
     showgrid="false"
     inkscape:zoom="4.8015863"
     inkscape:cx="166.29921"
     inkscape:cy="60.472446"
     inkscape:window-x="-11"
     inkscape:window-y="-11"
     inkscape:window-maximized="1"
     inkscape:current-layer="g953" /><g
     id="g953"
     inkscape:groupmode="layer"
     inkscape:label="fig_cdpr_mapping_of_diff_spaces"
     transform="matrix(1.3333333,0,0,1.3333333,0,7.6902888e-6)"><g
       id="g955"
       transform="matrix(1,0,0,0.91358002,0,7.2295951)"><g
         id="g957"><path
           d="m 212.734,34.801 c -2.187,3.125 -2.625,8 -5.64,11.219 -3.012,3.218 -8.598,4.781 -10.285,8.531 -1.688,3.75 0.523,9.687 3.132,13.281 2.606,3.594 5.606,4.844 8.075,6.938 2.468,2.093 4.406,5.031 6.468,6.468 2.063,1.438 4.25,1.375 7.532,1 3.281,-0.375 7.656,-1.062 11.312,-1.781 3.656,-0.719 6.594,-1.469 7.375,-4.031 0.781,-2.563 -0.594,-6.938 -0.844,-10.031 -0.25,-3.094 0.625,-4.907 0.25,-7.125 -0.375,-2.219 -2,-4.844 -3.687,-7.688 -1.688,-2.844 -3.438,-5.906 -4.531,-8.781 -1.094,-2.875 -1.532,-5.563 -2.938,-7.844 -1.406,-2.281 -3.781,-4.156 -6.937,-4.406 -3.157,-0.25 -7.094,1.125 -9.282,4.25 z"
           style="fill:#e6e6f2;fill-opacity:1;fill-rule:nonzero;stroke:#000000;stroke-width:0.75;stroke-linecap:butt;stroke-linejoin:miter;stroke-miterlimit:4;stroke-dasharray:none;stroke-opacity:1"
           id="path959" /></g><g
         id="g961"><path
           d="m 122.156,31.637 c -1.535,0.5 -1.972,0.812 -2.91,2.25 -0.937,1.437 -2.375,4 -4.406,5.875 -2.027,1.875 -4.652,3.062 -5.527,5.968 -0.879,2.907 -0.004,7.532 2.281,11.594 2.281,4.063 5.969,7.563 8.031,11.75 2.059,4.188 2.496,9.063 5.313,11.375 2.812,2.313 8,2.063 10.906,0.031 2.902,-2.031 3.527,-5.843 4.34,-7.937 0.816,-2.094 1.816,-2.469 3.379,-2.875 1.562,-0.406 3.687,-0.844 4.5,-2.563 0.808,-1.718 0.308,-4.718 -0.219,-6.781 -0.531,-2.062 -1.094,-3.187 -0.848,-5.562 0.25,-2.375 1.313,-6 1.938,-9 0.625,-3 0.812,-5.375 0.535,-7 -0.281,-1.625 -1.031,-2.5 -2.75,-2.688 -1.719,-0.187 -4.406,0.313 -7.531,-0.625 -3.125,-0.937 -6.688,-3.312 -9.782,-4.156 -3.093,-0.844 -5.718,-0.156 -7.25,0.344 z"
           style="fill:#e6f2e6;fill-opacity:1;fill-rule:nonzero;stroke:#000000;stroke-width:0.75;stroke-linecap:butt;stroke-linejoin:miter;stroke-miterlimit:4;stroke-dasharray:none;stroke-opacity:1"
           id="path963" /></g><g
         id="g965"><path
           d="m 21.156,39.855 c 3.25,-4.808 6.5,-9.621 9.813,-10.402 3.316,-0.781 6.691,2.469 9.41,4.469 2.719,2 4.781,2.75 7,3.312 2.219,0.563 4.594,0.938 6.312,2.25 1.715,1.313 2.778,3.563 2.903,5.5 0.125,1.938 -0.688,3.563 -2.25,5.438 -1.563,1.871 -3.875,4 -4.074,6.734 -0.204,2.735 1.707,6.082 1.488,9.989 -0.219,3.906 -2.567,8.371 -5.207,10.293 -2.641,1.921 -5.578,1.296 -8.11,0.359 -2.531,-0.938 -4.656,-2.188 -6.722,-0.875 -2.063,1.312 -4.063,5.187 -6.188,6.344 -2.121,1.156 -4.371,-0.407 -4.875,-2.688 -0.5,-2.281 0.75,-5.281 1.313,-8.812 0.562,-3.532 0.437,-7.594 0.094,-11.094 -0.344,-3.5 -0.907,-6.438 -1.282,-9.594 -0.375,-3.156 -0.562,-6.531 -0.468,-8.437 0.093,-1.911 0.468,-2.344 0.843,-2.786"
           style="fill:#f2e6e6;fill-opacity:1;fill-rule:nonzero;stroke:#000000;stroke-width:0.75;stroke-linecap:butt;stroke-linejoin:miter;stroke-miterlimit:4;stroke-dasharray:none;stroke-opacity:1"
           id="path967" /></g></g></g></svg>
